<?xml version="1.0" encoding="iso-8859-1"?>
<!-- Generator: Adobe Illustrator 16.0.0, SVG Export Plug-In . SVG Version: 6.00 Build 0)  -->
<!DOCTYPE svg PUBLIC "-//W3C//DTD SVG 1.1//EN" "http://www.w3.org/Graphics/SVG/1.1/DTD/svg11.dtd">
<svg version="1.1" id="Capa_1" xmlns="http://www.w3.org/2000/svg" xmlns:xlink="http://www.w3.org/1999/xlink" x="0px" y="0px"
	 width="70.099px" height="70.1px" viewBox="0 0 70.099 70.1" style="enable-background:new 0 0 70.099 70.1;" xml:space="preserve"
	>
<g>
	<path d="M30.182,45.997h1.381V33.402c-1.381,1.343-1.381,3.287-1.381,3.287V45.997z M33.046,45.997h1.359V32.211
		c-0.515,0.05-0.967,0.144-1.359,0.288V45.997z M38.537,45.997h1.379v-9.312c0,0,0-1.949-1.379-3.287V45.997z M35.879,45.997h1.176
		V32.499c-0.348-0.124-0.737-0.217-1.176-0.274V45.997z M68.929,53.714V27.55l-12.354,9.693v-8.121h-1.947v-2.312h-3.192v-6.664
		h-3.234c-1.242-4.54-6.663-7.957-13.151-7.957c-6.493,0-11.907,3.417-13.151,7.957h-3.233v6.664h-3.193v2.312h-1.942v8.114
		L1.17,27.55v26.164H0v4.196h70.099v-4.196H68.929z M6.978,42.715v10.068H4.622V42.414c0,0-0.281-4.288,1.233-4.438
		C7.37,37.825,6.978,42.715,6.978,42.715z M11.308,44.516v8.268H9.373v-8.518c0,0-0.231-3.512,1.01-3.638
		C11.626,40.505,11.308,44.516,11.308,44.516z M37.52,53.714h-4.938v-4.808h4.938V53.714z M40.977,46.678h-11.85v-10.43
		c0,0,0-5.488,5.926-5.488c5.924,0,5.924,5.488,5.924,5.488V46.678z M60.729,44.266v8.518h-1.93v-8.268c0,0-0.321-4.011,0.921-3.878
		C60.956,40.754,60.729,44.266,60.729,44.266z M65.479,42.414v10.369h-2.354V42.715c0,0-0.397-4.89,1.118-4.739
		C65.76,38.126,65.479,42.414,65.479,42.414z"/>
</g>
<g>
</g>
<g>
</g>
<g>
</g>
<g>
</g>
<g>
</g>
<g>
</g>
<g>
</g>
<g>
</g>
<g>
</g>
<g>
</g>
<g>
</g>
<g>
</g>
<g>
</g>
<g>
</g>
<g>
</g>
</svg>
